<?xml version="1.0" encoding="utf-8"?>
<!-- Svg Vector Icons : http://www.onlinewebfonts.com/icon -->
<!DOCTYPE svg PUBLIC "-//W3C//DTD SVG 1.1//EN" "http://www.w3.org/Graphics/SVG/1.1/DTD/svg11.dtd">
<svg version="1.1" xmlns="http://www.w3.org/2000/svg" xmlns:xlink="http://www.w3.org/1999/xlink" x="0px" y="0px" viewBox="0 0 256 256" enable-background="new 0 0 256 256" xml:space="preserve">
<metadata> Svg Vector Icons : http://www.onlinewebfonts.com/icon </metadata>
<g><g><path fill="#000000" d="M64.3,81h72.3c3.3,0,6,2.7,6,6c0,3.3-2.7,6-6,6H64.3c-3.3,0-6-2.7-6-6C58.2,83.7,60.9,81,64.3,81z"/><path fill="#000000" d="M64.3,117.2h72.3c3.3,0,6,2.7,6,6s-2.7,6-6,6H64.3c-3.3,0-6-2.7-6-6S60.9,117.2,64.3,117.2z"/><path fill="#000000" d="M125.6,153.4H64.3c-3.3,0-6,2.7-6,6c0,3.3,2.7,6,6,6h53.3C120,161.2,122.7,157.2,125.6,153.4z"/><path fill="#000000" d="M106.7,213.8H44.1c-12.2,0-22.1-10.4-22.1-23.2V56c0-12.8,9.9-23.2,22.1-23.2h112.4c12.2,0,22.1,10.4,22.1,23.2v99.2c3.9-0.8,7.9-1.3,12-1.6V56c0-19.5-15.3-35.3-34.1-35.3H44.1C25.3,20.8,10,36.5,10,56v134.5c0,19.5,15.3,35.3,34.1,35.3h64.2C107.5,221.9,106.9,217.9,106.7,213.8z"/><path fill="#000000" d="M244.2,149.4c-2.4-2.4-6.2-2.4-8.5,0l-71.2,71.2l-29.9-29.9c-2.4-2.4-6.2-2.4-8.5,0c-2.4,2.4-2.4,6.2,0,8.5l34.2,34.2c2.4,2.4,6.2,2.4,8.5,0l75.5-75.5C246.6,155.6,246.6,151.8,244.2,149.4z"/></g></g>
</svg>